<?xml version="1.0" encoding="UTF-8" standalone="no"?><!DOCTYPE svg PUBLIC "-//W3C//DTD SVG 1.1//EN" "http://www.w3.org/Graphics/SVG/1.1/DTD/svg11.dtd"><svg width="100%" height="100%" viewBox="0 0 4961 3508" version="1.1" xmlns="http://www.w3.org/2000/svg" xmlns:xlink="http://www.w3.org/1999/xlink" xml:space="preserve" xmlns:serif="http://www.serif.com/" style="fill-rule:evenodd;clip-rule:evenodd;"><g id="line3" transform="matrix(2.76051,0,0,2.76051,-4261.429938,-3278.2192)"><path d="M2440.396,1671.717l262.707,-152.502l260.997,145.679l197.892,-119.411" style="fill:none;stroke:#4a90e2;stroke-width:40.39px;"/></g><g id="polygon" transform="matrix(2.333195,0,0,2.333195,-3570.387009,-2958.638912)"><path d="M2287.334,1660.481l303.832,175.418l0,350.835l-303.832,175.418l-303.832,-175.418l-0,-350.835l303.832,-175.418Z" style="fill:none;stroke:#4a90e2;stroke-width:42.67px;stroke-linecap:round;stroke-miterlimit:1.5;"/></g><g id="line1" transform="matrix(2.76051,0,0,2.76051,-4261.429938,-3278.2192)"><path d="M1926.795,1964.005l-195.747,117.344" style="fill:none;stroke:#4a90e2;stroke-width:40.39px;stroke-miterlimit:1.5;"/></g><g id="line2" transform="matrix(2.76051,0,0,2.76051,-4220.373151,-4336.543494)"><path d="M1918.061,2054.621l-201.886,-116.837" style="fill:none;stroke:#4a90e2;stroke-width:40.39px;stroke-miterlimit:1.5;"/></g><g id="ho-2" transform="matrix(2.76051,0,0,2.76051,-4248.114763,-3312.669475)"><circle cx="1662.814" cy="2127.749" r="61.411" style="fill:none;stroke:#4a90e2;stroke-width:46.89px;"/></g><g id="nh2" transform="matrix(2.76051,0,0,2.76051,46.593738,-4958.084817)"><circle cx="1662.814" cy="2127.749" r="61.411" style="fill:none;stroke:#4a90e2;stroke-width:46.89px;"/></g><g id="ho-1" transform="matrix(2.76051,0,0,2.76051,-4242.593743,-4958.084817)"><circle cx="1662.814" cy="2127.749" r="61.411" style="fill:none;stroke:#4a90e2;stroke-width:46.89px;"/></g><g id="retangle3" transform="matrix(2.118701,1.223232,-0.570726,0.988527,-1896.004124,-2348.988382)"><rect x="2002.824" y="1913.629" width="253.321" height="80.176" style="fill:#f2994a;stroke:#4a90e2;stroke-width:0.52px;stroke-linecap:round;stroke-miterlimit:1.5;"/></g><g id="retangle2" transform="matrix(-0,-2.446465,1.141452,-0,73.562245,6943.862772)"><rect x="2002.824" y="1913.629" width="253.321" height="80.176" style="fill:#f2994a;stroke:#4a90e2;stroke-width:0.52px;stroke-linecap:round;stroke-miterlimit:1.5;"/></g><g id="retangle1" transform="matrix(-2.118701,1.223232,-0.570726,-0.988527,7138.518378,600.771114)"><rect x="2002.824" y="1913.629" width="253.321" height="80.176" style="fill:#f2994a;stroke:#4a90e2;stroke-width:0.52px;stroke-linecap:round;stroke-miterlimit:1.5;"/></g></svg>