<svg xmlns="http://www.w3.org/2000/svg" xmlns:xlink="http://www.w3.org/1999/xlink" width="500" zoomAndPan="magnify" viewBox="0 0 375 374.999991" height="500" preserveAspectRatio="xMidYMid meet" version="1.0"><path fill="#00f0ff" d="M 192.179688 -65.9375 C 192.363281 -65.640625 192.621094 -65.398438 192.753906 -65.398438 C 192.882812 -65.398438 192.992188 -65.640625 192.992188 -65.9375 C 192.992188 -66.234375 192.734375 -66.476562 192.417969 -66.476562 C 192.105469 -66.476562 191.996094 -66.234375 192.179688 -65.9375 M -79.359375 -32.976562 C -79.359375 -32.675781 -79.113281 -32.433594 -78.816406 -32.433594 C -78.519531 -32.433594 -78.277344 -32.675781 -78.277344 -32.976562 C -78.277344 -33.273438 -78.519531 -33.515625 -78.816406 -33.515625 C -79.113281 -33.515625 -79.359375 -33.273438 -79.359375 -32.976562 M -32.886719 -24.867188 C -32.886719 -24.570312 -32.507812 -24.328125 -32.042969 -24.328125 C -31.582031 -24.328125 -31.351562 -24.570312 -31.535156 -24.867188 C -31.71875 -25.167969 -32.097656 -25.410156 -32.378906 -25.410156 C -32.65625 -25.410156 -32.886719 -25.167969 -32.886719 -24.867188 M -98.8125 -23.246094 C -98.8125 -22.949219 -98.554688 -22.707031 -98.238281 -22.707031 C -97.925781 -22.707031 -97.816406 -22.949219 -98 -23.246094 C -98.183594 -23.546875 -98.441406 -23.789062 -98.574219 -23.789062 C -98.703125 -23.789062 -98.8125 -23.546875 -98.8125 -23.246094 M 69.785156 -16.523438 C 69.785156 -16.0625 70.027344 -15.683594 70.324219 -15.683594 C 70.621094 -15.683594 70.867188 -15.910156 70.867188 -16.191406 C 70.867188 -16.472656 70.621094 -16.851562 70.324219 -17.035156 C 70.027344 -17.21875 69.785156 -16.988281 69.785156 -16.523438 M -213.808594 -8.625 C -213.679688 -8.234375 -213.253906 -7.808594 -212.863281 -7.679688 C -212.460938 -7.542969 -212.257812 -7.746094 -212.390625 -8.152344 C -212.523438 -8.542969 -212.949219 -8.96875 -213.335938 -9.097656 C -213.742188 -9.230469 -213.945312 -9.027344 -213.808594 -8.625 M 387.527344 -5.144531 C 387.527344 -4.699219 387.769531 -4.335938 388.066406 -4.335938 C 388.363281 -4.335938 388.605469 -4.699219 388.605469 -5.144531 C 388.605469 -5.589844 388.363281 -5.957031 388.066406 -5.957031 C 387.769531 -5.957031 387.527344 -5.589844 387.527344 -5.144531 M -172.304688 24.304688 C -172.304688 24.601562 -172.058594 24.84375 -171.761719 24.84375 C -171.464844 24.84375 -171.222656 24.601562 -171.222656 24.304688 C -171.222656 24.007812 -171.464844 23.765625 -171.761719 23.765625 C -172.058594 23.765625 -172.304688 24.007812 -172.304688 24.304688 M 556.664062 29.167969 C 556.664062 29.464844 556.90625 29.707031 557.203125 29.707031 C 557.5 29.707031 557.742188 29.464844 557.742188 29.167969 C 557.742188 28.871094 557.5 28.628906 557.203125 28.628906 C 556.90625 28.628906 556.664062 28.871094 556.664062 29.167969 M 150.570312 36.480469 C 148.195312 36.871094 143.558594 38.050781 140.265625 39.109375 C 136.976562 40.167969 132.480469 41.285156 130.269531 41.59375 C 120.195312 42.996094 111.976562 45.621094 102.207031 50.558594 C 92.730469 55.347656 86.628906 59.535156 80.050781 65.773438 C 73.574219 71.917969 72.476562 72.589844 67.101562 73.710938 C 60.441406 75.097656 51.964844 80.839844 46.945312 87.367188 C 43.117188 92.339844 38.773438 99.914062 37.613281 103.628906 C 36.644531 106.742188 36.195312 107.335938 32.375 110.5625 C 26.746094 115.320312 19.71875 122.863281 16.628906 127.46875 C 13.257812 132.492188 8.640625 141.796875 6.601562 147.671875 C 1.332031 162.863281 1.132812 180.183594 6.011719 199.0625 C 10.085938 214.84375 18.007812 226.890625 30.339844 236.082031 C 43.597656 245.960938 61.863281 250.582031 85.71875 250.089844 L 94.355469 249.910156 L 96.601562 253.34375 C 100.925781 259.953125 107.566406 265.460938 114.324219 268.042969 C 121.601562 270.824219 135.070312 272.136719 157.875 272.285156 C 170.847656 272.371094 173.960938 272.75 177.765625 274.71875 C 182.449219 277.144531 208.703125 304.152344 217.207031 315.296875 C 219.25 317.972656 224.101562 324.917969 227.984375 330.734375 C 237.8125 345.4375 238.6875 346.023438 250.8125 346.070312 C 257.089844 346.09375 259.214844 345.898438 261.507812 345.101562 C 265.445312 343.730469 270.296875 339.164062 272.414062 334.835938 C 274.820312 329.921875 274.996094 327.429688 273.273438 322.570312 C 271.402344 317.28125 271.414062 317.503906 272.964844 317.339844 C 279.933594 316.59375 300.535156 312.894531 304.308594 311.710938 C 309.117188 310.207031 312.957031 308.078125 318.949219 303.605469 C 325.769531 298.511719 328.695312 295.585938 332.132812 290.441406 C 336.382812 284.078125 339.816406 274.4375 339.878906 268.6875 C 339.910156 265.917969 340.460938 264.824219 342.308594 263.875 C 345.488281 262.234375 352.207031 256.773438 355.597656 253.074219 C 361.925781 246.167969 367.324219 236.480469 369.925781 227.367188 C 373.890625 213.472656 372.910156 195.992188 367.578125 185.425781 C 365.921875 182.148438 365.902344 182.019531 366.519531 178.441406 C 367.4375 173.128906 367.269531 160.085938 366.207031 153.996094 C 364.515625 144.296875 360.054688 133.226562 354.554688 125.074219 C 349.738281 117.933594 340.363281 109.554688 335.242188 107.820312 C 331.640625 106.597656 330.980469 105.945312 330.519531 103.191406 C 329.640625 97.960938 324.609375 86.550781 319.878906 79.058594 C 314.359375 70.316406 301.144531 61.679688 288.253906 58.390625 C 283.328125 57.132812 273.921875 55.648438 270.875 55.648438 C 269.105469 55.648438 268.273438 55.195312 265.519531 52.738281 C 256.414062 44.613281 246.941406 39.910156 234.648438 37.414062 C 231.042969 36.683594 227.355469 36.476562 218.117188 36.492188 C 205.28125 36.511719 199.40625 37.214844 191.019531 39.734375 C 188.601562 40.460938 186.164062 41.054688 185.605469 41.054688 C 185.046875 41.054688 182.652344 40.300781 180.28125 39.378906 C 171.15625 35.832031 160.765625 34.820312 150.570312 36.480469 M 155.164062 54.847656 C 153.53125 55.238281 149.394531 56.542969 145.976562 57.746094 C 141.597656 59.285156 138.859375 59.9375 136.703125 59.949219 C 124.234375 60.027344 105.902344 68.0625 95.222656 78.132812 L 91.71875 81.433594 L 97.929688 88.339844 L 97.5625 104.300781 C 97.117188 123.492188 96.875 122.570312 104.421875 130.5625 C 116.386719 143.234375 133.558594 159.847656 135.8125 160.929688 C 139.648438 162.773438 144.332031 163.171875 162.054688 163.175781 L 178.941406 163.179688 L 178.941406 161.507812 C 178.941406 159.332031 177.921875 157.929688 169.765625 148.863281 C 166.019531 144.699219 160.867188 138.742188 158.316406 135.621094 C 152.121094 128.050781 151.65625 127.671875 147.015625 126.394531 C 136.902344 123.609375 129.984375 117.316406 127.609375 108.746094 C 124.433594 97.28125 128.761719 83.882812 137.609375 77.796875 C 144.785156 72.859375 150.742188 71.265625 158.03125 72.328125 C 166.492188 73.5625 175.558594 80.4375 178.726562 88.011719 C 180.171875 91.480469 181.246094 99.375 180.855469 103.71875 C 180.25 110.484375 178.457031 114.785156 174.25 119.546875 C 173.261719 120.664062 172.457031 121.957031 172.457031 122.425781 C 172.457031 122.894531 173.886719 125.03125 175.640625 127.171875 C 179.707031 132.148438 207.820312 161.363281 209.3125 162.160156 C 211.125 163.128906 241.511719 164.089844 244.265625 163.261719 C 247.84375 162.191406 248.109375 161.191406 248.109375 148.742188 L 248.109375 138.035156 L 245 136.179688 C 241.546875 134.117188 236.21875 129.015625 236.21875 127.765625 C 236.21875 127.324219 235.984375 126.539062 235.699219 126.023438 C 234.183594 123.292969 233.011719 119.789062 232.40625 116.148438 C 231.808594 112.570312 231.839844 111.601562 232.671875 108.207031 C 234.542969 100.570312 238.84375 94.132812 244.859375 89.964844 C 247.472656 88.15625 255.058594 86.371094 260.59375 86.265625 C 264.371094 86.191406 265.039062 86.355469 268.792969 88.261719 C 276.527344 92.1875 281.210938 96.957031 283.851562 103.609375 C 284.894531 106.242188 285.085938 107.734375 285.105469 113.464844 C 285.125 119.976562 285.0625 120.355469 283.378906 123.902344 C 280.636719 129.699219 275.058594 134.597656 267.851562 137.546875 L 265.128906 138.660156 L 264.828125 152.945312 C 264.480469 169.316406 264.203125 170.507812 259.625 175.164062 C 255.597656 179.265625 252.472656 180.339844 243.515625 180.707031 C 227.628906 181.359375 222.863281 181.667969 222.183594 182.085938 C 221.640625 182.421875 221.425781 186.097656 221.246094 198.113281 C 221.121094 206.691406 221.164062 214.714844 221.347656 215.953125 C 221.660156 218.046875 223.167969 219.691406 244.027344 240.667969 C 256.316406 253.023438 267.023438 263.382812 267.8125 263.683594 C 270.300781 264.628906 275.324219 264.296875 280.066406 262.875 C 284.828125 261.445312 304.484375 256.636719 316.648438 253.925781 C 329.289062 251.109375 336.070312 247.78125 342.484375 241.242188 C 348.851562 234.75 352.875 225.65625 354.015625 215.179688 C 354.980469 206.300781 353.359375 195.484375 350.710938 193.125 C 348.964844 191.574219 347.5625 188.082031 347.550781 185.261719 C 347.542969 183.882812 347.929688 180.722656 348.410156 178.234375 C 349.550781 172.316406 349.148438 159.8125 347.636719 154.265625 C 344.9375 144.332031 340.695312 136.503906 334.53125 130.066406 C 332.5 127.941406 330.742188 126.316406 330.625 126.457031 C 330.507812 126.59375 330.613281 128.773438 330.855469 131.300781 C 331.339844 136.351562 331.113281 139.257812 329.890625 143.683594 C 328.332031 149.324219 326.953125 150.890625 304.679688 172.289062 C 301.167969 175.660156 298.058594 179.039062 297.773438 179.796875 C 297.121094 181.511719 298.054688 188.839844 299.136719 190.492188 C 299.554688 191.125 301.324219 192.164062 303.074219 192.804688 C 309.65625 195.203125 314.835938 200.136719 317.316406 206.367188 C 318.921875 210.394531 319.320312 218.277344 318.171875 223.164062 C 316.175781 231.636719 311.703125 238.0625 305.757812 240.984375 C 301.558594 243.050781 297.769531 243.675781 290.695312 243.460938 C 282.441406 243.214844 277.742188 241.082031 272.375 235.152344 C 265.332031 227.367188 263.371094 218.53125 266.554688 208.933594 C 268.097656 204.289062 269.863281 201.765625 274.925781 196.953125 L 279.476562 192.632812 L 279.703125 184.640625 C 279.828125 180.242188 280.101562 176.109375 280.3125 175.453125 C 280.519531 174.796875 282.238281 171.792969 284.128906 168.777344 C 287.050781 164.125 289.171875 161.726562 298.214844 152.835938 C 304.070312 147.085938 309.65625 141.578125 310.625 140.597656 C 313.410156 137.78125 313.613281 136.300781 313.367188 120.75 C 313.148438 107.199219 313.09375 106.574219 311.707031 102.730469 C 308.671875 94.304688 304.390625 88.332031 297.894531 83.449219 C 289.335938 77.023438 280.980469 74.429688 269.507812 74.636719 C 262.113281 74.773438 261.855469 74.644531 254.488281 67.3125 C 250.414062 63.253906 249.050781 62.28125 244.222656 59.984375 C 236.207031 56.171875 231.855469 55.375 219.042969 55.375 C 207.78125 55.375 207.15625 55.539062 208.164062 58.1875 C 208.429688 58.890625 209.996094 61.535156 211.640625 64.058594 C 215.703125 70.292969 217.367188 74.195312 219.5625 82.664062 C 220.5 86.285156 221.621094 96.476562 221.625 101.425781 C 221.628906 107.15625 219.972656 116.558594 218.511719 119.054688 C 216.355469 122.753906 210.019531 125.082031 206.320312 123.535156 C 202.386719 121.894531 201.484375 118.15625 202.578125 108.0625 C 204.820312 87.378906 199.777344 73.277344 186.578125 63.332031 C 176.019531 55.375 165.191406 52.449219 155.164062 54.847656 M 536.667969 59.460938 C 536.667969 59.777344 536.910156 59.882812 537.210938 59.699219 C 537.507812 59.515625 537.75 59.257812 537.75 59.128906 C 537.75 58.996094 537.507812 58.890625 537.210938 58.890625 C 536.910156 58.890625 536.667969 59.148438 536.667969 59.460938 M 148.890625 91.542969 C 146.851562 92.433594 144.988281 95.976562 144.570312 99.761719 C 144.210938 103.035156 145.894531 106.648438 148.625 108.464844 C 150.777344 109.894531 154.933594 110.117188 157.21875 108.921875 C 158.878906 108.054688 161.226562 105.65625 162.125 103.910156 C 163.496094 101.238281 162.441406 96.132812 159.792969 92.660156 C 158.378906 90.804688 158.28125 90.773438 154.460938 90.792969 C 152.320312 90.804688 149.816406 91.140625 148.890625 91.542969 M 70.363281 92.777344 C 68.058594 93.074219 64.867188 95.234375 61.640625 98.683594 C 58.21875 102.34375 56.476562 105.523438 54.039062 112.554688 C 52.886719 115.878906 51.503906 119.207031 50.964844 119.953125 C 50.429688 120.695312 47.453125 123.019531 44.351562 125.121094 C 39.363281 128.5 38.214844 129.601562 34.390625 134.644531 C 25.050781 146.96875 20.601562 159.855469 20.625 174.527344 C 20.640625 184.484375 22.914062 195.515625 26.472656 202.898438 C 29.019531 208.175781 34.007812 214.972656 37.894531 218.464844 C 45.605469 225.386719 57.671875 229.820312 72.878906 231.320312 C 79.585938 231.980469 91.578125 231.300781 93.417969 230.152344 C 94.714844 229.34375 96.933594 225.363281 98.117188 221.710938 C 99.710938 216.8125 99.050781 215.628906 89.054688 205.511719 C 84.308594 200.710938 79.898438 196.496094 79.25 196.148438 C 78.296875 195.640625 77.105469 195.785156 72.964844 196.910156 C 68.234375 198.199219 67.511719 198.261719 63.28125 197.734375 C 54.503906 196.644531 50.167969 194.882812 45.585938 190.550781 C 41.53125 186.710938 38.964844 181.320312 38.167969 174.957031 C 37.660156 170.878906 39.152344 162.761719 41.203125 158.46875 C 43.027344 154.648438 47.308594 150 50.992188 147.839844 C 60.496094 142.269531 76.339844 145.601562 85.089844 155.011719 C 86.523438 156.550781 88.160156 158.871094 88.734375 160.160156 C 90.234375 163.554688 90.921875 169.691406 90.375 174.800781 C 90.027344 178.078125 90.082031 179.382812 90.617188 180.203125 C 91.003906 180.796875 96.019531 186.074219 101.761719 191.933594 C 110.9375 201.289062 112.496094 202.652344 114.597656 203.191406 C 116.367188 203.644531 120.046875 203.648438 128.714844 203.214844 C 135.164062 202.894531 147.8125 202.628906 156.820312 202.628906 C 172.320312 202.628906 173.320312 202.6875 175.527344 203.757812 C 177.027344 204.484375 180.382812 207.550781 184.964844 212.378906 C 192.828125 220.671875 194.265625 221.542969 200.0625 221.542969 L 203.160156 221.542969 L 203.515625 217.082031 C 204.171875 208.910156 204.074219 188.433594 203.375 186.800781 C 202.601562 185 200.242188 182.707031 198.453125 182.019531 C 197.734375 181.742188 186.417969 181.523438 173.054688 181.527344 C 138.515625 181.539062 132.5 180.777344 125.542969 175.53125 C 122.585938 173.296875 101.5 153.003906 89.777344 141.109375 C 83.722656 134.964844 81.300781 131.21875 79.742188 125.582031 C 79.019531 122.980469 78.867188 119.855469 78.914062 108.875 C 78.980469 92.863281 78.9375 92.691406 74.90625 92.601562 C 73.425781 92.570312 71.382812 92.648438 70.363281 92.777344 M 252.714844 104.496094 C 250.457031 106.890625 248.910156 112.101562 249.65625 114.796875 C 250.449219 117.671875 252.078125 119.585938 255.148438 121.257812 C 258.90625 123.304688 261.960938 123.035156 264.683594 120.417969 C 267.316406 117.886719 268.101562 116.136719 268.101562 112.796875 C 268.101562 106.457031 264.1875 102.660156 257.648438 102.660156 C 254.710938 102.660156 254.308594 102.808594 252.714844 104.496094 M 8.082031 123.023438 C 8.472656 123.179688 8.9375 123.160156 9.117188 122.980469 C 9.296875 122.800781 8.976562 122.671875 8.40625 122.695312 C 7.777344 122.722656 7.648438 122.851562 8.082031 123.023438 M 59.167969 163.585938 C 57.617188 165.253906 56.0625 168.132812 55.542969 170.292969 C 55.074219 172.25 57.027344 178.367188 58.5625 179.742188 C 62.078125 182.890625 65.976562 182.632812 69.871094 178.992188 C 73.769531 175.34375 74.640625 171.433594 72.585938 166.792969 C 71.15625 163.554688 68.441406 162.101562 63.835938 162.101562 C 60.941406 162.101562 60.382812 162.28125 59.167969 163.585938 M 248.109375 202.121094 C 248.109375 202.433594 248.351562 202.542969 248.648438 202.359375 C 248.945312 202.175781 249.191406 201.917969 249.191406 201.785156 C 249.191406 201.65625 248.945312 201.546875 248.648438 201.546875 C 248.351562 201.546875 248.109375 201.804688 248.109375 202.121094 M 289.324219 206.9375 C 286.636719 207.574219 285.082031 208.839844 283.835938 211.417969 C 281.875 215.46875 282.53125 219.910156 285.703125 224.070312 C 287.503906 226.433594 292.160156 227.894531 295.085938 227.019531 C 299.875 225.585938 302.816406 219.804688 301.664062 214.078125 C 300.964844 210.585938 299.980469 209.308594 297.011719 208.015625 C 294.21875 206.800781 291.507812 206.421875 289.324219 206.9375 M 129.226562 221.101562 C 126.402344 221.390625 123.726562 221.941406 123.28125 222.328125 C 122.835938 222.714844 121.324219 223.53125 119.917969 224.140625 C 117.835938 225.046875 116.921875 225.933594 114.980469 228.9375 C 111.105469 234.925781 110.703125 238.492188 113.304688 243.695312 C 114.78125 246.648438 115.667969 247.464844 119.476562 249.375 C 125.339844 252.316406 130.734375 252.949219 151.382812 253.132812 C 167.347656 253.273438 170.847656 253.453125 175.75 254.382812 C 178.898438 254.984375 182.34375 255.921875 183.410156 256.476562 C 189.089844 259.417969 212.644531 281.75 223.753906 294.726562 C 229.925781 301.9375 237.90625 312.601562 243.492188 321.105469 C 247.960938 327.910156 248.960938 328.667969 251.882812 327.457031 C 254.859375 326.226562 254.664062 323.921875 250.753906 314.167969 C 249.3125 310.574219 247.722656 305.914062 247.21875 303.8125 C 246.347656 300.183594 246.351562 299.917969 247.257812 298.535156 L 248.210938 297.078125 L 256.398438 297.539062 C 284.863281 299.152344 299.203125 296.402344 309.710938 287.3125 C 312.957031 284.507812 317.074219 279.457031 318.875 276.078125 C 320.585938 272.871094 320.589844 272.839844 319.347656 273.117188 C 315.859375 273.902344 284.277344 280.71875 278.640625 281.898438 C 273.871094 282.902344 271.078125 283.199219 268.089844 283.027344 C 260.980469 282.625 259.914062 281.816406 237.882812 260.152344 C 223.929688 246.433594 218.023438 240.972656 216.707031 240.566406 C 215.699219 240.261719 210.378906 239.871094 204.878906 239.707031 C 198.265625 239.503906 193.785156 239.109375 191.640625 238.53125 C 187.441406 237.402344 179.226562 231.90625 173.933594 226.679688 C 167.609375 220.433594 168.820312 220.742188 150.300781 220.652344 C 141.535156 220.609375 132.050781 220.8125 129.226562 221.101562 M 394.28125 229.648438 C 394.097656 229.945312 394.203125 230.1875 394.519531 230.1875 C 394.832031 230.1875 395.089844 229.945312 395.089844 229.648438 C 395.089844 229.351562 394.984375 229.105469 394.851562 229.105469 C 394.722656 229.105469 394.464844 229.351562 394.28125 229.648438 M -2.625 308 C -2.625 308.300781 -2.382812 308.542969 -2.085938 308.542969 C -1.789062 308.542969 -1.542969 308.300781 -1.542969 308 C -1.542969 307.703125 -1.789062 307.460938 -2.085938 307.460938 C -2.382812 307.460938 -2.625 307.703125 -2.625 308 M 426.164062 309.082031 C 426.347656 309.378906 426.601562 309.621094 426.734375 309.621094 C 426.867188 309.621094 426.972656 309.378906 426.972656 309.082031 C 426.972656 308.785156 426.714844 308.542969 426.402344 308.542969 C 426.085938 308.542969 425.980469 308.785156 426.164062 309.082031 M -42.34375 321.511719 C -42.160156 321.808594 -41.902344 322.050781 -41.769531 322.050781 C -41.640625 322.050781 -41.53125 321.808594 -41.53125 321.511719 C -41.53125 321.214844 -41.789062 320.96875 -42.105469 320.96875 C -42.417969 320.96875 -42.527344 321.214844 -42.34375 321.511719 M 179.480469 323.703125 C 179.480469 324.019531 179.722656 324.125 180.023438 323.941406 C 180.320312 323.757812 180.5625 323.5 180.5625 323.371094 C 180.5625 323.238281 180.320312 323.132812 180.023438 323.132812 C 179.722656 323.132812 179.480469 323.390625 179.480469 323.703125 M 13.585938 333.898438 C 13.585938 334.15625 13.949219 334.503906 14.398438 334.675781 C 14.84375 334.847656 15.207031 334.777344 15.207031 334.519531 C 15.207031 334.265625 14.84375 333.914062 14.398438 333.742188 C 13.949219 333.574219 13.585938 333.644531 13.585938 333.898438 M 269.453125 396.082031 C 269.269531 396.378906 269.378906 396.625 269.691406 396.625 C 270.007812 396.625 270.265625 396.378906 270.265625 396.082031 C 270.265625 395.785156 270.15625 395.542969 270.027344 395.542969 C 269.894531 395.542969 269.636719 395.785156 269.453125 396.082031 M -113.402344 410.132812 C -113.402344 410.429688 -113.144531 410.671875 -112.828125 410.671875 C -112.515625 410.671875 -112.40625 410.429688 -112.589844 410.132812 C -112.773438 409.835938 -113.03125 409.59375 -113.164062 409.59375 C -113.292969 409.59375 -113.402344 409.835938 -113.402344 410.132812 M 106.53125 431.78125 C 106.53125 432.09375 106.773438 432.203125 107.070312 432.019531 C 107.367188 431.832031 107.613281 431.578125 107.613281 431.445312 C 107.613281 431.3125 107.367188 431.207031 107.070312 431.207031 C 106.773438 431.207031 106.53125 431.464844 106.53125 431.78125 M 104.640625 434.988281 C 104.457031 435.285156 104.5625 435.53125 104.878906 435.53125 C 105.191406 435.53125 105.449219 435.285156 105.449219 434.988281 C 105.449219 434.691406 105.34375 434.449219 105.210938 434.449219 C 105.082031 434.449219 104.824219 434.691406 104.640625 434.988281 M -203.023438 452.253906 C -202.902344 452.613281 -202.628906 452.886719 -202.414062 452.863281 C -201.769531 452.796875 -201.894531 452.054688 -202.589844 451.824219 C -202.949219 451.703125 -203.140625 451.898438 -203.023438 452.253906 " fill-opacity="1" fill-rule="evenodd"/></svg>