<svg xmlns="http://www.w3.org/2000/svg" xmlns:xlink="http://www.w3.org/1999/xlink" width="1920" zoomAndPan="magnify" viewBox="0 0 1440 809.999993" height="1080" preserveAspectRatio="xMidYMid meet" version="1.0"><defs><g/><clipPath id="d22d543e24"><path d="M 336 231 L 668 231 L 668 612 L 336 612 Z M 336 231 " clip-rule="nonzero"/></clipPath><clipPath id="d6cbf09d37"><path d="M 418.953125 183.707031 L 749.65625 374.414062 L 585.550781 658.988281 L 254.847656 468.28125 Z M 418.953125 183.707031 " clip-rule="nonzero"/></clipPath><clipPath id="6200aaf39a"><path d="M 418.953125 183.710938 L 749.738281 374.464844 L 585.808594 658.730469 L 255.023438 467.976562 Z M 418.953125 183.710938 " clip-rule="nonzero"/></clipPath><clipPath id="f61f364610"><path d="M 667.773438 516.597656 L 503.113281 611.042969 L 337.71875 515.664062 L 336.988281 325.84375 L 501.648438 231.398438 L 667.039062 326.773438 Z M 667.773438 516.597656 " clip-rule="nonzero"/></clipPath><clipPath id="c6b828522a"><rect x="0" width="172" y="0" height="161"/></clipPath><clipPath id="154a1e110e"><rect x="0" width="40" y="0" height="94"/></clipPath><clipPath id="ea7b58fb95"><rect x="0" width="176" y="0" height="161"/></clipPath><clipPath id="ba60adffd0"><rect x="0" width="175" y="0" height="162"/></clipPath></defs><g clip-path="url(#d22d543e24)"><g clip-path="url(#d6cbf09d37)"><g clip-path="url(#6200aaf39a)"><g clip-path="url(#f61f364610)"><path stroke-linecap="butt" transform="matrix(0.649709, 0.37467, -0.37467, 0.649709, 418.953465, 183.709316)" fill="none" stroke-linejoin="miter" d="M 509.12714 218.764852 L 381.846436 437.529763 L 127.279306 437.52948 L -0.00000798451 218.766197 L 127.280695 0.00128543 L 381.840712 -0.000341803 Z M 509.12714 218.764852 " stroke="#c2a878" stroke-width="38" stroke-opacity="1" stroke-miterlimit="4"/></g></g></g></g><path stroke-linecap="round" transform="matrix(0.649918, -0.374308, 0.374308, 0.649918, 196.511305, 587.796542)" fill="none" stroke-linejoin="miter" d="M 9.501366 9.499593 L 210.037622 9.49931 " stroke="#c2a878" stroke-width="19" stroke-opacity="1" stroke-miterlimit="4"/><path stroke-linecap="round" transform="matrix(0.636598, 0.396538, -0.396538, 0.636598, 203.834307, 235.110183)" fill="none" stroke-linejoin="miter" d="M 9.498759 9.502031 L 214.635094 9.500987 " stroke="#c2a878" stroke-width="19" stroke-opacity="1" stroke-miterlimit="4"/><path stroke-linecap="round" transform="matrix(0, 0.75, -0.75, 0, 377.665418, 364.288156)" fill="none" stroke-linejoin="miter" d="M 9.501209 9.501807 L 142.339757 9.501807 " stroke="#c2a878" stroke-width="19" stroke-opacity="1" stroke-miterlimit="4"/><path stroke-linecap="round" transform="matrix(-0.656531, 0.362583, -0.362583, -0.656531, 623.355143, 512.714058)" fill="none" stroke-linejoin="miter" d="M 9.000588 8.997605 L 142.841175 8.999158 " stroke="#c2a878" stroke-width="18" stroke-opacity="1" stroke-miterlimit="4"/><path stroke-linecap="round" transform="matrix(0.66005, -0.356138, 0.356138, 0.66005, 657.899685, 323.762435)" fill="none" stroke-linejoin="miter" d="M 9.502159 9.499416 L 261.596728 9.498345 " stroke="#c2a878" stroke-width="19" stroke-opacity="1" stroke-miterlimit="4"/><path stroke-linecap="round" transform="matrix(-0.664869, -0.347058, 0.347058, -0.664869, 1011.300195, 336.204848)" fill="none" stroke-linejoin="miter" d="M 9.500743 9.502166 L 268.278728 9.498569 " stroke="#c2a878" stroke-width="19" stroke-opacity="1" stroke-miterlimit="4"/><path stroke-linecap="round" transform="matrix(-0.659479, 0.357193, -0.357193, -0.659479, 1191.867594, 239.804012)" fill="none" stroke-linejoin="miter" d="M 9.498792 9.49738 L 266.968595 9.499927 " stroke="#c2a878" stroke-width="19" stroke-opacity="1" stroke-miterlimit="4"/><g transform="matrix(1, 0, 0, 1, 1214, 85)"><g clip-path="url(#c6b828522a)"><g fill="#c2a878" fill-opacity="1"><g transform="translate(0.647328, 120.869577)"><g><path d="M 78.984375 0 L 59.40625 0 L 26.671875 -49.5625 L 26.671875 0 L 7.09375 0 L 7.09375 -80.359375 L 26.671875 -80.359375 L 59.40625 -30.5625 L 59.40625 -80.359375 L 78.984375 -80.359375 Z M 78.984375 0 "/></g></g></g><g fill="#c2a878" fill-opacity="1"><g transform="translate(86.713381, 120.869577)"><g><path d="M 76.6875 -80.359375 L 76.6875 0 L 57.125 0 L 57.125 -33.078125 L 26.671875 -33.078125 L 26.671875 0 L 7.09375 0 L 7.09375 -80.359375 L 26.671875 -80.359375 L 26.671875 -48.875 L 57.125 -48.875 L 57.125 -80.359375 Z M 76.6875 -80.359375 "/></g></g></g></g></g><path stroke-linecap="round" transform="matrix(-0.656598, -0.362462, 0.362462, -0.656598, 613.231079, 342.605657)" fill="none" stroke-linejoin="miter" d="M 9.498392 9.499068 L 142.337914 9.497831 " stroke="#c2a878" stroke-width="19" stroke-opacity="1" stroke-miterlimit="4"/><g transform="matrix(1, 0, 0, 1, 1389, 154)"><g clip-path="url(#154a1e110e)"><g fill="#c2a878" fill-opacity="1"><g transform="translate(0.825639, 70.285374)"><g><path d="M 2.59375 -9.109375 C 4.101562 -10.304688 4.789062 -10.859375 4.65625 -10.765625 C 9 -14.359375 12.421875 -17.304688 14.921875 -19.609375 C 17.429688 -21.921875 19.550781 -24.335938 21.28125 -26.859375 C 23.007812 -29.390625 23.875 -31.851562 23.875 -34.25 C 23.875 -36.0625 23.453125 -37.476562 22.609375 -38.5 C 21.765625 -39.519531 20.5 -40.03125 18.8125 -40.03125 C 17.132812 -40.03125 15.816406 -39.398438 14.859375 -38.140625 C 13.910156 -36.878906 13.4375 -35.09375 13.4375 -32.78125 L 2.453125 -32.78125 C 2.546875 -36.550781 3.359375 -39.695312 4.890625 -42.21875 C 6.421875 -44.75 8.4375 -46.613281 10.9375 -47.8125 C 13.445312 -49.007812 16.226562 -49.609375 19.28125 -49.609375 C 24.5625 -49.609375 28.539062 -48.253906 31.21875 -45.546875 C 33.90625 -42.847656 35.25 -39.328125 35.25 -34.984375 C 35.25 -30.234375 33.628906 -25.828125 30.390625 -21.765625 C 27.148438 -17.710938 23.023438 -13.757812 18.015625 -9.90625 L 35.96875 -9.90625 L 35.96875 -0.671875 L 2.59375 -0.671875 Z M 2.59375 -9.109375 "/></g></g></g></g></g><g transform="matrix(1, 0, 0, 1, 23, 103)"><g clip-path="url(#ea7b58fb95)"><g fill="#c2a878" fill-opacity="1"><g transform="translate(0.911486, 120.666996)"><g><path d="M 76.6875 -80.359375 L 76.6875 0 L 57.125 0 L 57.125 -33.078125 L 26.671875 -33.078125 L 26.671875 0 L 7.09375 0 L 7.09375 -80.359375 L 26.671875 -80.359375 L 26.671875 -48.875 L 57.125 -48.875 L 57.125 -80.359375 Z M 76.6875 -80.359375 "/></g></g></g><g fill="#c2a878" fill-opacity="1"><g transform="translate(84.574086, 120.666996)"><g><path d="M 45.09375 0.796875 C 37.539062 0.796875 30.613281 -0.957031 24.3125 -4.46875 C 18.019531 -7.976562 13.023438 -12.878906 9.328125 -19.171875 C 5.628906 -25.472656 3.78125 -32.550781 3.78125 -40.40625 C 3.78125 -48.269531 5.628906 -55.328125 9.328125 -61.578125 C 13.023438 -67.835938 18.019531 -72.722656 24.3125 -76.234375 C 30.613281 -79.742188 37.539062 -81.5 45.09375 -81.5 C 52.65625 -81.5 59.582031 -79.742188 65.875 -76.234375 C 72.175781 -72.722656 77.132812 -67.835938 80.75 -61.578125 C 84.375 -55.328125 86.1875 -48.269531 86.1875 -40.40625 C 86.1875 -32.550781 84.351562 -25.472656 80.6875 -19.171875 C 77.03125 -12.878906 72.070312 -7.976562 65.8125 -4.46875 C 59.5625 -0.957031 52.65625 0.796875 45.09375 0.796875 Z M 45.09375 -17.0625 C 51.507812 -17.0625 56.644531 -19.195312 60.5 -23.46875 C 64.351562 -27.738281 66.28125 -33.382812 66.28125 -40.40625 C 66.28125 -47.5 64.351562 -53.164062 60.5 -57.40625 C 56.644531 -61.644531 51.507812 -63.765625 45.09375 -63.765625 C 38.613281 -63.765625 33.445312 -61.664062 29.59375 -57.46875 C 25.738281 -53.269531 23.8125 -47.582031 23.8125 -40.40625 C 23.8125 -33.3125 25.738281 -27.644531 29.59375 -23.40625 C 33.445312 -19.175781 38.613281 -17.0625 45.09375 -17.0625 Z M 45.09375 -17.0625 "/></g></g></g></g></g><g transform="matrix(1, 0, 0, 1, 12, 562)"><g clip-path="url(#ba60adffd0)"><g fill="#c2a878" fill-opacity="1"><g transform="translate(0.198329, 121.094231)"><g><path d="M 76.6875 -80.359375 L 76.6875 0 L 57.125 0 L 57.125 -33.078125 L 26.671875 -33.078125 L 26.671875 0 L 7.09375 0 L 7.09375 -80.359375 L 26.671875 -80.359375 L 26.671875 -48.875 L 57.125 -48.875 L 57.125 -80.359375 Z M 76.6875 -80.359375 "/></g></g></g><g fill="#c2a878" fill-opacity="1"><g transform="translate(83.860928, 121.094231)"><g><path d="M 45.09375 0.796875 C 37.539062 0.796875 30.613281 -0.957031 24.3125 -4.46875 C 18.019531 -7.976562 13.023438 -12.878906 9.328125 -19.171875 C 5.628906 -25.472656 3.78125 -32.550781 3.78125 -40.40625 C 3.78125 -48.269531 5.628906 -55.328125 9.328125 -61.578125 C 13.023438 -67.835938 18.019531 -72.722656 24.3125 -76.234375 C 30.613281 -79.742188 37.539062 -81.5 45.09375 -81.5 C 52.65625 -81.5 59.582031 -79.742188 65.875 -76.234375 C 72.175781 -72.722656 77.132812 -67.835938 80.75 -61.578125 C 84.375 -55.328125 86.1875 -48.269531 86.1875 -40.40625 C 86.1875 -32.550781 84.351562 -25.472656 80.6875 -19.171875 C 77.03125 -12.878906 72.070312 -7.976562 65.8125 -4.46875 C 59.5625 -0.957031 52.65625 0.796875 45.09375 0.796875 Z M 45.09375 -17.0625 C 51.507812 -17.0625 56.644531 -19.195312 60.5 -23.46875 C 64.351562 -27.738281 66.28125 -33.382812 66.28125 -40.40625 C 66.28125 -47.5 64.351562 -53.164062 60.5 -57.40625 C 56.644531 -61.644531 51.507812 -63.765625 45.09375 -63.765625 C 38.613281 -63.765625 33.445312 -61.664062 29.59375 -57.46875 C 25.738281 -53.269531 23.8125 -47.582031 23.8125 -40.40625 C 23.8125 -33.3125 25.738281 -27.644531 29.59375 -23.40625 C 33.445312 -19.175781 38.613281 -17.0625 45.09375 -17.0625 Z M 45.09375 -17.0625 "/></g></g></g></g></g></svg>